<?xml version="1.0" encoding="utf-8"?>
<!-- Generator: Adobe Illustrator 24.3.0, SVG Export Plug-In . SVG Version: 6.00 Build 0)  -->
<svg version="1.1" id="Layer_1" xmlns="http://www.w3.org/2000/svg" xmlns:xlink="http://www.w3.org/1999/xlink" x="0px" y="0px"
	 viewBox="0 0 1280 1106" style="enable-background:new 0 0 1280 1106;" xml:space="preserve">
<style type="text/css">
	.st0{fill:#173C69;}
</style>
<g transform="translate(0.000000,1106.000000) scale(0.100000,-0.100000)">
	<path class="st0" d="M5570,8954c-830-28-1333-62-1835-124c-1020-128-1693-353-1874-627c-30-45-31-50-31-157c0-166,32-560,66-826
		c187-1453,650-2683,1331-3529c183-228,397-445,600-609l82-67l-1700-3l-1699-2l3-113c5-134,33-230,104-348c48-81,140-191,212-255
		c24-21,62-65,84-99c96-142,327-340,552-474c696-414,1779-712,3175-871c1047-120,2473-120,3520,0c1396,159,2479,457,3175,871
		c225,134,456,332,552,474c22,34,60,78,84,99c72,64,164,174,212,255c71,118,99,214,104,349l3,112h-1735H8819l78,62
		c453,365,893,928,1179,1510c28,56,43,77,54,73c8-2,67-11,130-19c348-45,673-23,928,63c367,123,596,365,688,728
		c75,297,44,782-67,1049c-98,234-280,393-523,454c-97,24-327,43-418,35l-68-7l5,28c39,229,85,699,99,1034c6,127-6,162-86,246
		c-229,242-867,443-1778,558c-430,55-822,86-1465,117C7371,8951,5785,8961,5570,8954z M10982,6415c168-16,282-114,332-285
		c25-85,38-290,25-384c-37-274-227-449-574-531c-142-33-425-63-425-45c0,5,24,76,54,157c110,304,241,763,296,1035l11,57l77,3
		C10857,6426,10883,6425,10982,6415z"/>
</g>
</svg>
